<?xml version="1.0" encoding="UTF-8" standalone="no"?>
<svg xmlns="http://www.w3.org/2000/svg" width="302.859" height="78.185" viewBox="0 0 302.859 78.185">
  <g id="Group_106" transform="translate(0 0)">
    <path id="Path_1" d="M291.1,25.314a1.793,1.793,0,0,1,.536-1.3,1.689,1.689,0,0,1,2.6,0,2.08,2.08,0,0,1,.46,1.3,1.68,1.68,0,0,1-.536,1.3,1.631,1.631,0,0,1-1.225.536,1.793,1.793,0,0,1-1.3-.536A1.847,1.847,0,0,1,291.1,25.314Z" transform="translate(-68.186 -5.481)" fill="#717073" />
    <path id="Path_2" d="M365.6,25.414a1.793,1.793,0,0,1,.536-1.3,1.69,1.69,0,0,1,2.6,0,2.08,2.08,0,0,1,.46,1.3,1.68,1.68,0,0,1-.536,1.3,1.631,1.631,0,0,1-1.225.536,1.83,1.83,0,0,1-1.838-1.838Z" transform="translate(-85.637 -5.505)" fill="#717073" />
    <g id="Group_1" transform="translate(81.783 15.621)">
      <path id="Path_3" d="M109.48,31.859c.077.383.153.919.23,1.455.383-.153.766-.383,1.225-.613s.919-.383,1.455-.613L114,31.63a12.522,12.522,0,0,1,1.685-.153,6.869,6.869,0,0,1,2.6.459,5.368,5.368,0,0,1,1.991,1.532,13.68,13.68,0,0,1,6.815-2.068,5.709,5.709,0,0,1,2.374.459,4.567,4.567,0,0,1,1.685,1.225,5.062,5.062,0,0,1,1,1.914,7.57,7.57,0,0,1,.306,2.3V51.08H129.62V37.832a5.264,5.264,0,0,0-.23-1.685,2.574,2.574,0,0,0-.766-1.225,3.212,3.212,0,0,0-1.072-.689,4.005,4.005,0,0,0-1.378-.23,11.333,11.333,0,0,0-5.131,1.3,10.847,10.847,0,0,1,.23,2.374V51.463H118.44V37.832a4.226,4.226,0,0,0-.919-2.986,3.482,3.482,0,0,0-2.6-.919,7.887,7.887,0,0,0-2.68.459,18.14,18.14,0,0,0-2.45,1v16h-2.833V34.157a20.375,20.375,0,0,0-.153-2.3Z" transform="translate(-106.8 -22.977)" fill="#717073" />
      <path id="Path_4" d="M145.525,34.28c.459-.383,1-.766,1.532-1.149a14.469,14.469,0,0,1,1.914-.842,10.284,10.284,0,0,1,2.068-.536,10.111,10.111,0,0,1,2.144-.153,6.7,6.7,0,0,1,4.748,1.532,5.209,5.209,0,0,1,1.761,4.135V45.92a11.881,11.881,0,0,0,.077,1.761,8.136,8.136,0,0,0,.23,1.072,1.206,1.206,0,0,0,.536.536,2.265,2.265,0,0,0,.766.153,6.7,6.7,0,0,0,1.225-.153l.459,1.3a3.837,3.837,0,0,1-1.378.766,5.287,5.287,0,0,1-1.914.306,2.27,2.27,0,0,1-1.838-.766,4.532,4.532,0,0,1-.919-2.3,14.564,14.564,0,0,1-3.369,2.3,9.669,9.669,0,0,1-3.905.842,6.607,6.607,0,0,1-2.144-.306,4.112,4.112,0,0,1-1.685-1,5.737,5.737,0,0,1-1.149-1.532,4.535,4.535,0,0,1-.383-2.068,5.888,5.888,0,0,1,2.221-4.671,8.49,8.49,0,0,1,2.3-1.3,15.419,15.419,0,0,1,2.68-.766,17.048,17.048,0,0,1,2.757-.383c.919-.077,1.761-.077,2.527-.077V37.65a3.279,3.279,0,0,0-1-2.757,3.965,3.965,0,0,0-2.757-.842,7.714,7.714,0,0,0-1.914.23,7.832,7.832,0,0,0-1.608.613,11.112,11.112,0,0,0-1.378.766c-.383.306-.766.536-1.149.842ZM156.859,41.1a16.858,16.858,0,0,0-4.212.459,9.237,9.237,0,0,0-2.91,1.072,5.526,5.526,0,0,0-1.685,1.532,3.536,3.536,0,0,0-.536,1.991,2.826,2.826,0,0,0,.842,2.221,3.8,3.8,0,0,0,2.374.689,13.754,13.754,0,0,0,1.685-.153l1.608-.459a8.73,8.73,0,0,0,1.455-.766l1.378-.919Z" transform="translate(-115.584 -23.023)" fill="#717073" />
      <path id="Path_5" d="M174.58,31.906a5.328,5.328,0,0,1,.153,1.225,16.053,16.053,0,0,1,.077,2.068,10.483,10.483,0,0,1,3.216-2.6,8.693,8.693,0,0,1,3.905-1h.459a3.316,3.316,0,0,1,.383.077l-.613,2.986a6.869,6.869,0,0,0-1.378-.153,7.168,7.168,0,0,0-3.982,1.072,5.376,5.376,0,0,0-2.068,2.144V51.357h-2.757V34.586c0-1.532-.077-2.45-.077-2.68Z" transform="translate(-122.049 -23.023)" fill="#717073" />
      <path id="Path_6" d="M192.557,36.558l8.117-7.351h3.446l-7.734,7.2L204.5,48.657h-3.369l-6.586-10.644-1.914,1.532v9.113H189.8V20.4h2.833V36.558Z" transform="translate(-126.242 -20.4)" fill="#717073" />
      <path id="Path_7" d="M225.611,47.834a9.843,9.843,0,0,1-3.14,2.757,9.677,9.677,0,0,1-4.748,1.072,7.779,7.779,0,0,1-6.126-2.68c-1.531-1.838-2.3-4.365-2.3-7.658a11.035,11.035,0,0,1,2.144-7.045c1.378-1.838,3.446-2.68,6.2-2.68a7.37,7.37,0,0,1,5.437,1.914A7.669,7.669,0,0,1,225.3,38.8c.077.842.077,1.761.077,2.68H212.363a9.879,9.879,0,0,0,1.455,5.513,4.559,4.559,0,0,0,4.059,2.3,6.252,6.252,0,0,0,3.216-.766,8.843,8.843,0,0,0,2.527-2.3Zm-8.041-14.09a4.5,4.5,0,0,0-3.829,1.761,7.092,7.092,0,0,0-1.378,3.905h10.108a8.112,8.112,0,0,0-1.149-3.982A4.126,4.126,0,0,0,217.57,33.744Z" transform="translate(-130.809 -23.023)" fill="#717073" />
      <path id="Path_8" d="M238.08,31.759c.077.383.153.919.23,1.455.383-.153.766-.383,1.225-.613s.919-.383,1.455-.613l1.608-.459a12.522,12.522,0,0,1,1.685-.153,6.869,6.869,0,0,1,2.6.459,4.609,4.609,0,0,1,1.914,1.532,13.68,13.68,0,0,1,6.815-2.068,5.708,5.708,0,0,1,2.374.459,4.567,4.567,0,0,1,1.685,1.225,5.063,5.063,0,0,1,1,1.914,7.571,7.571,0,0,1,.306,2.3V50.98h-2.833V37.656a5.263,5.263,0,0,0-.23-1.685,2.573,2.573,0,0,0-.766-1.225,3.212,3.212,0,0,0-1.072-.689,3.709,3.709,0,0,0-1.378-.23,10.792,10.792,0,0,0-5.054,1.3,10.84,10.84,0,0,1,.23,2.374V51.286H247.04V37.732a4.226,4.226,0,0,0-.919-2.986,3.482,3.482,0,0,0-2.6-.919,7.888,7.888,0,0,0-2.68.459,18.139,18.139,0,0,0-2.45,1v16h-2.833V34.057a20.366,20.366,0,0,0-.153-2.3Z" transform="translate(-136.923 -22.953)" fill="#717073" />
      <path id="Path_9" d="M291.9,31.9h2.833V51.35H291.9Z" transform="translate(-150.157 -23.094)" fill="#717073" />
      <path id="Path_10" d="M304.28,31.759c.077.383.153.919.23,1.455.383-.153.766-.383,1.225-.613s.919-.383,1.455-.613l1.608-.459a12.52,12.52,0,0,1,1.685-.153,6.869,6.869,0,0,1,2.6.459,5.368,5.368,0,0,1,1.991,1.532,13.68,13.68,0,0,1,6.815-2.068,5.708,5.708,0,0,1,2.374.459,4.567,4.567,0,0,1,1.685,1.225,5.062,5.062,0,0,1,1,1.914,7.571,7.571,0,0,1,.306,2.3V50.98H324.42V37.656a5.263,5.263,0,0,0-.23-1.685,2.573,2.573,0,0,0-.766-1.225,3.212,3.212,0,0,0-1.072-.689,3.709,3.709,0,0,0-1.378-.23,11.334,11.334,0,0,0-5.131,1.3,10.84,10.84,0,0,1,.23,2.374V51.286H313.24V37.732a4.226,4.226,0,0,0-.919-2.986,3.482,3.482,0,0,0-2.6-.919,7.887,7.887,0,0,0-2.68.459,18.139,18.139,0,0,0-2.45,1v16h-2.833V34.057a20.383,20.383,0,0,0-.153-2.3Z" transform="translate(-152.429 -22.953)" fill="#717073" />
      <path id="Path_11" d="M339.925,34.38c.459-.383,1-.766,1.532-1.149a14.458,14.458,0,0,1,1.914-.842,10.286,10.286,0,0,1,2.068-.536,10.111,10.111,0,0,1,2.144-.153,7.068,7.068,0,0,1,4.748,1.532,5.209,5.209,0,0,1,1.761,4.135V46.02a11.876,11.876,0,0,0,.077,1.761,8.156,8.156,0,0,0,.23,1.072,1.207,1.207,0,0,0,.536.536,2.266,2.266,0,0,0,.766.153,6.7,6.7,0,0,0,1.225-.153l.46,1.3a3.839,3.839,0,0,1-1.378.766,7.7,7.7,0,0,1-1.914.306A2.27,2.27,0,0,1,352.254,51a4.531,4.531,0,0,1-.919-2.3,14.564,14.564,0,0,1-3.369,2.3,9.669,9.669,0,0,1-3.905.842,6.606,6.606,0,0,1-2.144-.306,4.111,4.111,0,0,1-1.685-1,4.734,4.734,0,0,1-1.149-1.532,4.535,4.535,0,0,1-.383-2.068,6.347,6.347,0,0,1,.613-2.757,5.779,5.779,0,0,1,1.608-1.991,8.491,8.491,0,0,1,2.3-1.3,15.423,15.423,0,0,1,2.68-.766c.919-.153,1.838-.306,2.757-.383s1.761-.077,2.527-.077V37.673a3.279,3.279,0,0,0-1-2.757,3.965,3.965,0,0,0-2.757-.842,7.714,7.714,0,0,0-1.914.23,7.831,7.831,0,0,0-1.608.613,11.108,11.108,0,0,0-1.378.766c-.459.306-.766.536-1.149.842ZM351.259,41.2a16.858,16.858,0,0,0-4.212.459,9.238,9.238,0,0,0-2.91,1.072,5.526,5.526,0,0,0-1.685,1.532,3.536,3.536,0,0,0-.536,1.991,2.826,2.826,0,0,0,.842,2.221,3.8,3.8,0,0,0,2.374.689,13.751,13.751,0,0,0,1.685-.153l1.608-.459a8.726,8.726,0,0,0,1.455-.766c.46-.306.919-.613,1.3-.919V41.2Z" transform="translate(-161.119 -23.047)" fill="#717073" />
      <path id="Path_12" d="M367.8,53.571a5.719,5.719,0,0,1-1.685,4.441,6.581,6.581,0,0,1-4.518,1.532h-1.3l.23-2.527a3.317,3.317,0,0,0,.383.077h.383a4.124,4.124,0,0,0,2.451-.842c.766-.536,1.072-1.608,1.072-3.063V31.9h2.833V53.571Z" transform="translate(-166.179 -23.094)" fill="#717073" />
      <path id="Path_13" d="M390.511,47.934a9.844,9.844,0,0,1-3.14,2.757,9.678,9.678,0,0,1-4.748,1.072,7.779,7.779,0,0,1-6.126-2.68c-1.532-1.838-2.3-4.365-2.3-7.658a11.035,11.035,0,0,1,2.144-7.045c1.378-1.838,3.446-2.68,6.2-2.68a7.37,7.37,0,0,1,5.437,1.914A7.668,7.668,0,0,1,390.2,38.9c.077.842.077,1.761.077,2.68H377.263a9.879,9.879,0,0,0,1.455,5.513,4.559,4.559,0,0,0,4.059,2.3,6.252,6.252,0,0,0,3.216-.766,8.842,8.842,0,0,0,2.527-2.3Zm-8.117-14.013a4.494,4.494,0,0,0-3.829,1.761,7.091,7.091,0,0,0-1.378,3.905h10.108a8.111,8.111,0,0,0-1.149-3.982A4.126,4.126,0,0,0,382.394,33.921Z" transform="translate(-169.435 -23.047)" fill="#717073" />
    </g>
    <path id="Path_14" d="M282.59,45.488c0,.689-.383,1.225-.842,1.225h-3.905c-.46,0-.842-.536-.842-1.225V42.425c0-.689.383-1.225.842-1.225h3.905c.46,0,.842.536.842,1.225Z" transform="translate(-64.884 -9.651)" fill="#6c207e" />
    <path id="Path_15" d="M33.847,0A34,34,0,1,0,67.923,33.847,33.973,33.973,0,0,0,33.847,0ZM19.986,48.4A2.158,2.158,0,0,1,18,50.693H12.712a2.158,2.158,0,0,1-1.991-2.3V24.275a2.158,2.158,0,0,1,1.991-2.3H18a2.158,2.158,0,0,1,1.991,2.3Zm11.716,0a2.158,2.158,0,0,1-1.991,2.3H24.428a2.158,2.158,0,0,1-1.991-2.3V24.275a2.158,2.158,0,0,1,1.991-2.3h5.284a2.158,2.158,0,0,1,1.991,2.3Zm11.716,0a2.158,2.158,0,0,1-1.991,2.3H36.144a2.158,2.158,0,0,1-1.991-2.3V24.275a2.158,2.158,0,0,1,1.991-2.3h5.284a2.158,2.158,0,0,1,1.991,2.3Zm11.793,0a2.158,2.158,0,0,1-1.991,2.3H47.937a2.158,2.158,0,0,1-1.991-2.3V24.275a2.158,2.158,0,0,1,1.991-2.3H53.22a2.158,2.158,0,0,1,1.991,2.3Zm-2.68-28.333H48.549a2.939,2.939,0,0,1-2.6-2.68V13.707a2.869,2.869,0,0,1,2.68-2.6h3.982a2.908,2.908,0,0,1,2.6,2.6v3.676A2.938,2.938,0,0,1,52.531,20.063Z" transform="translate(0 0)" fill="#6c207e" />
    <g id="Group_2" transform="translate(153.995 59.347)">
      <path id="Path_16" d="M207.379,87.788a.765.765,0,0,1-.383.306,4.885,4.885,0,0,0-.536.153c-.459.077-.919.153-1.455.23a7.284,7.284,0,0,0-1.378.306,3.056,3.056,0,0,0-1,.536,1.456,1.456,0,0,0-.383,1,2.266,2.266,0,0,0,.153.766,1.029,1.029,0,0,0,.459.536,1.481,1.481,0,0,0,.689.383,2.721,2.721,0,0,0,.766.153,3.175,3.175,0,0,0,1.225-.23,4.126,4.126,0,0,0,1-.536,2.091,2.091,0,0,0,.689-.919,3.174,3.174,0,0,0,.23-1.225l-.077-1.455Zm-5.59-2.68a2.251,2.251,0,0,1,.766-.919,2.665,2.665,0,0,1,1.149-.536,4.476,4.476,0,0,1,1.455-.153,7.637,7.637,0,0,1,1.225.153,2.685,2.685,0,0,1,1.072.459,3.065,3.065,0,0,1,.766.919,2.738,2.738,0,0,1,.306,1.455v4.824c0,.459.23.689.613.689a.69.69,0,0,0,.383-.077v.919c-.153,0-.23.077-.306.077h-.383c-.306,0-.536,0-.689-.153a.765.765,0,0,1-.383-.306,1.107,1.107,0,0,1-.153-.536c0-.23-.077-.383-.077-.613h0a6.694,6.694,0,0,1-.613.766,4.209,4.209,0,0,1-.689.536,2.831,2.831,0,0,1-.842.383,4.635,4.635,0,0,1-1.149.153A5.953,5.953,0,0,1,203.014,93a2.374,2.374,0,0,1-1-.459,2.55,2.55,0,0,1-.689-.842,2.916,2.916,0,0,1-.23-1.225,2.536,2.536,0,0,1,.383-1.455,3.2,3.2,0,0,1,1.149-.842,8.957,8.957,0,0,1,1.532-.383c.613-.077,1.149-.153,1.761-.23.23,0,.459-.077.613-.077a1.088,1.088,0,0,0,.459-.153.765.765,0,0,0,.306-.383,1.493,1.493,0,0,0,.077-.613,2.856,2.856,0,0,0-.153-.919,1.207,1.207,0,0,0-.536-.536,2.294,2.294,0,0,0-.766-.306,3.728,3.728,0,0,0-.919-.077,2.685,2.685,0,0,0-1.761.536,1.789,1.789,0,0,0-.689,1.608h-1.072a3.843,3.843,0,0,1,.306-1.532" transform="translate(-201.1 -78.905)" />
      <path id="Path_17" d="M307.35,84.785a2.45,2.45,0,0,0-1.761-.613,2.622,2.622,0,0,0-1.378.306,3.626,3.626,0,0,0-1,.842,6.11,6.11,0,0,0-.613,1.225,4.458,4.458,0,0,0-.23,1.455,4.335,4.335,0,0,0,.23,1.378,3.687,3.687,0,0,0,.613,1.225,2.867,2.867,0,0,0,1,.919,2.622,2.622,0,0,0,1.378.306,2.358,2.358,0,0,0,1-.23,3.163,3.163,0,0,0,.842-.536,3.4,3.4,0,0,0,.613-.842,4.393,4.393,0,0,0,.306-1.072h1.072a4.174,4.174,0,0,1-1.225,2.6,3.668,3.668,0,0,1-2.527.919,4.627,4.627,0,0,1-1.838-.383,4.546,4.546,0,0,1-1.378-1,4.932,4.932,0,0,1-.842-1.532,7.69,7.69,0,0,1-.306-1.838,4.634,4.634,0,0,1,.306-1.838,3.753,3.753,0,0,1,.842-1.532,4.768,4.768,0,0,1,1.378-1.072,4.627,4.627,0,0,1,1.838-.383,3.752,3.752,0,0,1,2.451.766,3.416,3.416,0,0,1,1.225,2.374h-1.149a3.471,3.471,0,0,0-.842-1.455" transform="translate(-224.57 -78.812)" />
      <path id="Path_18" d="M316.586,84.6a3.627,3.627,0,0,0-1,.842,6.106,6.106,0,0,0-.613,1.225,4.459,4.459,0,0,0-.23,1.455,5.2,5.2,0,0,0,.23,1.455,3.685,3.685,0,0,0,.613,1.225,2.868,2.868,0,0,0,1,.919,3.254,3.254,0,0,0,2.757,0,2.867,2.867,0,0,0,1-.919,6.107,6.107,0,0,0,.613-1.225,4.458,4.458,0,0,0,.23-1.455,5.2,5.2,0,0,0-.23-1.455,3.684,3.684,0,0,0-.613-1.225,2.117,2.117,0,0,0-1-.842,3.254,3.254,0,0,0-2.757,0m3.216-.919a3.742,3.742,0,0,1,1.378,1.072,4.931,4.931,0,0,1,.842,1.532,7.684,7.684,0,0,1,.306,1.838,4.634,4.634,0,0,1-.306,1.838,3.752,3.752,0,0,1-.842,1.532,3.544,3.544,0,0,1-1.378,1,4.6,4.6,0,0,1-3.676,0,4.546,4.546,0,0,1-1.378-1,4.933,4.933,0,0,1-.842-1.532,7.687,7.687,0,0,1-.306-1.838,4.633,4.633,0,0,1,.306-1.838,3.754,3.754,0,0,1,.842-1.532,4.769,4.769,0,0,1,1.378-1.072,4.6,4.6,0,0,1,3.676,0" transform="translate(-227.452 -78.859)" />
      <path id="Path_19" d="M328.419,83.63v1.532h.077a3.811,3.811,0,0,1,1.149-1.3,3.266,3.266,0,0,1,1.838-.459,2.831,2.831,0,0,1,1.608.459,2.41,2.41,0,0,1,1,1.3,2.554,2.554,0,0,1,1.225-1.3A3.279,3.279,0,0,1,337,83.4q2.986,0,2.986,3.216v6.2H338.91V86.693a2.6,2.6,0,0,0-.459-1.685,2.031,2.031,0,0,0-1.685-.613,2.088,2.088,0,0,0-1.225.306,2.433,2.433,0,0,0-.766.766,4.426,4.426,0,0,0-.383,1.072,6.193,6.193,0,0,0-.077,1.225V92.9h-1.149v-6.2a2.87,2.87,0,0,0-.077-.842,1.443,1.443,0,0,0-.306-.689,1.19,1.19,0,0,0-.613-.459,1.658,1.658,0,0,0-.919-.153,3.175,3.175,0,0,0-1.225.23,1.872,1.872,0,0,0-.842.689,2.684,2.684,0,0,0-.459,1.072,6.739,6.739,0,0,0-.153,1.3V92.9H327.5V83.63Z" transform="translate(-230.707 -78.882)" />
      <path id="Path_20" d="M353.9,86.769a3.519,3.519,0,0,0-.536-1.225,2.683,2.683,0,0,0-2.3-1.3,3.037,3.037,0,0,0-1.531.306,2.666,2.666,0,0,0-1,.842A5.926,5.926,0,0,0,348,86.616a9.38,9.38,0,0,0-.153,1.455A8.435,8.435,0,0,0,348,89.45a3.518,3.518,0,0,0,.536,1.225,2.867,2.867,0,0,0,1,.919,2.915,2.915,0,0,0,1.455.306,2.425,2.425,0,0,0,2.3-1.225,5.929,5.929,0,0,0,.536-1.225,8.429,8.429,0,0,0,.153-1.378,3.84,3.84,0,0,0-.077-1.3m-6.126-3.14v1.761h0A2.875,2.875,0,0,1,349,83.936a3.536,3.536,0,0,1,1.991-.536,4.627,4.627,0,0,1,1.838.383,3.5,3.5,0,0,1,1.3,1.072,4.79,4.79,0,0,1,.766,1.532,7.466,7.466,0,0,1,0,3.676,4.093,4.093,0,0,1-2.068,2.6,4.627,4.627,0,0,1-1.838.383,4.483,4.483,0,0,1-1-.153,4.681,4.681,0,0,1-.919-.383,3,3,0,0,1-.766-.613,3.163,3.163,0,0,1-.536-.842h0v5.054H346.7V83.63Z" transform="translate(-235.205 -78.882)" />
      <path id="Path_21" d="M366.026,87.765a.764.764,0,0,1-.383.306,4.88,4.88,0,0,0-.536.153c-.459.077-.919.153-1.455.23a7.285,7.285,0,0,0-1.378.306,3.055,3.055,0,0,0-1,.536,1.456,1.456,0,0,0-.383,1,2.266,2.266,0,0,0,.153.766,1.03,1.03,0,0,0,.46.536,1.667,1.667,0,0,0,.613.383,2.721,2.721,0,0,0,.766.153,3.174,3.174,0,0,0,1.225-.23,4.125,4.125,0,0,0,1-.536,2.091,2.091,0,0,0,.689-.919,3.173,3.173,0,0,0,.23-1.225V87.765Zm-5.513-2.757a2.252,2.252,0,0,1,.766-.919,2.664,2.664,0,0,1,1.149-.536,4.476,4.476,0,0,1,1.455-.153,7.634,7.634,0,0,1,1.225.153,2.684,2.684,0,0,1,1.072.459,3.063,3.063,0,0,1,.766.919,2.738,2.738,0,0,1,.306,1.455v4.824c0,.459.23.689.613.689a.69.69,0,0,0,.383-.077v.919c-.153,0-.23.077-.306.077h-.383c-.306,0-.536,0-.689-.153a.765.765,0,0,1-.383-.306,1.107,1.107,0,0,1-.153-.536c0-.23-.077-.383-.077-.613h0a6.7,6.7,0,0,1-.613.766,4.21,4.21,0,0,1-.689.536,2.831,2.831,0,0,1-.842.383,4.634,4.634,0,0,1-1.149.153,5.952,5.952,0,0,1-1.225-.153,2.373,2.373,0,0,1-1-.459,1.729,1.729,0,0,1-.613-.842,2.915,2.915,0,0,1-.23-1.225,2.073,2.073,0,0,1,.46-1.455,3.2,3.2,0,0,1,1.149-.842,8.955,8.955,0,0,1,1.531-.383c.613-.077,1.149-.153,1.761-.23.23,0,.46-.077.613-.077a1.089,1.089,0,0,0,.46-.153.765.765,0,0,0,.306-.383,1.493,1.493,0,0,0,.077-.613,2.857,2.857,0,0,0-.153-.919,1.206,1.206,0,0,0-.536-.536,2.293,2.293,0,0,0-.766-.306,3.729,3.729,0,0,0-.919-.077,2.684,2.684,0,0,0-1.761.536,1.789,1.789,0,0,0-.689,1.608h-1.149a2.327,2.327,0,0,1,.23-1.532" transform="translate(-238.297 -78.882)" />
      <path id="Path_22" d="M373.925,83.63v1.608h0a2.7,2.7,0,0,1,1.149-1.3,3.642,3.642,0,0,1,1.761-.536,5.092,5.092,0,0,1,1.608.23,1.945,1.945,0,0,1,1,.689,2.828,2.828,0,0,1,.536,1.072,8.488,8.488,0,0,1,.153,1.455v5.82h-1.072V87a4.709,4.709,0,0,0-.077-1.072,2.828,2.828,0,0,0-.383-.842,1.808,1.808,0,0,0-.689-.613,2.557,2.557,0,0,0-1.149-.23,3.174,3.174,0,0,0-1.225.23,3.6,3.6,0,0,0-.919.689,2.522,2.522,0,0,0-.536,1,3.174,3.174,0,0,0-.23,1.225v5.284H372.7V83.63Z" transform="translate(-241.295 -78.882)" />
      <path id="Path_23" d="M385.349,83.7l2.986,7.734,2.833-7.734h1.149l-3.982,10.491c-.153.383-.306.689-.459,1a4.243,4.243,0,0,1-.459.613,1.539,1.539,0,0,1-.613.306,2.871,2.871,0,0,1-.842.077h-.536c-.153,0-.23,0-.306-.077v-.919c.153,0,.23.077.383.077h.383a1.493,1.493,0,0,0,.613-.077.765.765,0,0,0,.383-.306,1.6,1.6,0,0,0,.306-.459,5.274,5.274,0,0,0,.23-.613l.383-1-3.6-9.036h1.149Z" transform="translate(-243.989 -78.952)" />
      <path id="Path_24" d="M277.659,86H277.2v1.838h.459c.536,0,.766-.459.766-1,.077-.689-.23-.842-.766-.842" transform="translate(-218.925 -79.491)" fill="#004b8d" />
      <path id="Path_25" d="M248.989,85.8c-.459,0-.689.306-.689.766v4.365c0,.459.23.766.689.766s.689-.306.689-.766V86.566c0-.459-.23-.766-.689-.766" transform="translate(-212.156 -79.444)" fill="#004b8d" />
      <path id="Path_26" d="M238.459,86.2H238v5.207h.459c.536,0,.766-.23.766-.919V87.119c0-.689-.153-.919-.766-.919" transform="translate(-209.743 -79.538)" fill="#004b8d" />
      <path id="Path_27" d="M268.626,91.284h-3.063q-.459,0-.459-.689V88.6c0-.766-.23-1.072-.766-1.072h-.459v3.752h-3.063V82.248h4.748c1.761,0,2.68.766,2.68,2.527a1.82,1.82,0,0,1-1.608,1.991h0a1.735,1.735,0,0,1,1.608,1.685v2.068a.619.619,0,0,0,.383.766ZM260.2,84.392h-2.833V85.77H259.9v1.914h-2.527V89.14H260.2v2.144h-5.9V82.248h5.9Zm-8.194,6.892H247.95l-1.991-9.113h3.216l.766,6.2h0l.766-6.2H254Zm-9.649.306c-2.986,0-3.829-1.072-3.829-4.824s.842-4.824,3.829-4.824,3.829,1.072,3.829,4.824-.842,4.824-3.829,4.824M238.072,88.3c0,2.068-.919,3.063-2.986,3.063h-4.365V82.248h4.365c2.144,0,2.986,1,2.986,3.063Zm29.176-10.8H220v6.509h5.973v5.82H220v6.509h47.324s8.117,0,8.117-9.725c0-9.113-8.194-9.113-8.194-9.113" transform="translate(-205.527 -77.5)" fill="#004b8d" />
      <path id="Path_28" d="M291.678,99.132h.383c.153,0,.383,0,.383-.306s-.23-.306-.383-.306h-.383Zm-.306-.766h.613c.153,0,.613,0,.613.459a.478.478,0,0,1-.306.459.539.539,0,0,1,.306.383c0,.23.077.383.077.536h-.23c0-.153-.077-.153-.077-.459s-.077-.383-.383-.383h-.306v.842h-.23V98.366Zm-.842.919a1.455,1.455,0,1,0,1.455-1.455,1.506,1.506,0,0,0-1.455,1.455m3.14,0a1.685,1.685,0,1,1-1.685-1.685,1.7,1.7,0,0,1,1.685,1.685" transform="translate(-221.994 -82.208)" fill="#004b8d" />
    </g>
  </g>
</svg>